<!DOCTYPE svg PUBLIC "-//W3C//DTD SVG 1.1//EN" "http://www.w3.org/Graphics/SVG/1.1/DTD/svg11.dtd">
<!-- Uploaded to: SVG Repo, www.svgrepo.com, Transformed by: SVG Repo Mixer Tools -->
<svg height="256px" width="256px" version="1.1" id="Layer_1" xmlns="http://www.w3.org/2000/svg" xmlns:xlink="http://www.w3.org/1999/xlink" viewBox="0 0 512.00 512.00" xml:space="preserve" fill="#000000" data-darkreader-inline-fill="" style="--darkreader-inline-fill: #1c1e1f; --darkreader-inline-stroke: #1c1e1f;" stroke="#000000" data-darkreader-inline-stroke="" stroke-width="0.00512">
<g id="SVGRepo_bgCarrier" stroke-width="0"/>
<g id="SVGRepo_tracerCarrier" stroke-linecap="round" stroke-linejoin="round"/>
<g id="SVGRepo_iconCarrier"> <path style="fill: rgb(255, 255, 255); --darkreader-inline-fill: #fdfbf7;" d="M256,508C117.04,508,4,394.96,4,256S117.04,4,256,4s252,113.04,252,252S394.96,508,256,508z" data-darkreader-inline-fill=""/> <path style="fill: rgb(214, 214, 214); --darkreader-inline-fill: #dcd8d1;" d="M256,8c136.752,0,248,111.248,248,248S392.752,504,256,504S8,392.752,8,256S119.248,8,256,8 M256,0 C114.608,0,0,114.608,0,256s114.608,256,256,256s256-114.608,256-256S397.392,0,256,0L256,0z" data-darkreader-inline-fill=""/> <g> <ellipse style="fill: rgb(11, 164, 224); --darkreader-inline-fill: #469ebf;" cx="256" cy="175.648" rx="61.712" ry="60.48" data-darkreader-inline-fill=""/> <path style="fill: rgb(11, 164, 224); --darkreader-inline-fill: #469ebf;" d="M362.592,360.624c0-57.696-47.728-104.464-106.592-104.464s-106.592,46.768-106.592,104.464H362.592 z" data-darkreader-inline-fill=""/> </g> </g>
</svg>